<svg width="141" height="31" viewBox="0 0 141 31" fill="none" xmlns="http://www.w3.org/2000/svg">
<g filter="url(#filter0_d_8_212)">
<mask id="path-1-outside-1_8_212" maskUnits="userSpaceOnUse" x="4" y="0" width="133" height="23" fill="black">
<rect fill="white" x="4" width="133" height="23"/>
<path d="M5 1.4321H8.06145L15.535 17.1317L23.0085 1.4321H26.07V21.5679H23.0986V7.25103L16.2854 21.5679H14.7846L7.9414 7.25103V21.5679H5V1.4321Z"/>
<path d="M36.9844 1.4321H39.9258L48.2998 21.5679H45.1783L43.0773 16.5556H33.8029L31.7619 21.5679H28.6104L36.9844 1.4321ZM42.2369 14.107L38.4551 4.68724L34.6733 14.107H42.2369Z"/>
<path d="M51.6042 1.4321H60.0382C62.2792 1.4321 64 1.95062 65.2006 2.98765C66.4012 4.02469 67.0015 5.54184 67.0015 7.5391C67.0015 9.01783 66.5913 10.2757 65.7709 11.3128C64.9505 12.3306 63.7899 13.0219 62.2892 13.3868L66.9114 21.5679H63.7299L59.2578 13.6173H54.6656V21.5679H51.6042V1.4321ZM59.5279 11.1399C60.8686 11.1399 61.9291 10.8422 62.7094 10.2469C63.5098 9.63237 63.91 8.72977 63.91 7.5391C63.91 6.2332 63.5198 5.30178 62.7394 4.74486C61.9791 4.18793 60.9086 3.90947 59.5279 3.90947H54.6656V11.1399H59.5279Z"/>
<path d="M80.3097 22C78.2287 22 76.3479 21.5679 74.6671 20.7037C72.9863 19.8203 71.6656 18.5816 70.7052 16.9877C69.7447 15.3937 69.2645 13.5693 69.2645 11.5144C69.2645 9.45953 69.7447 7.63512 70.7052 6.04115C71.6656 4.44719 72.9863 3.2085 74.6671 2.3251C76.3479 1.4417 78.2287 1 80.3097 1C82.3907 1 84.2716 1.4417 85.9524 2.3251C87.6332 3.2085 88.9538 4.44719 89.9143 6.04115C90.8747 7.63512 91.355 9.45953 91.355 11.5144C91.355 13.5693 90.8747 15.3937 89.9143 16.9877C88.9538 18.5816 87.6332 19.8203 85.9524 20.7037C84.2716 21.5679 82.3907 22 80.3097 22ZM80.3097 19.3498C81.7904 19.3498 83.1311 19.0329 84.3316 18.3992C85.5522 17.7462 86.5127 16.834 87.213 15.6626C87.9133 14.4719 88.2635 13.0892 88.2635 11.5144C88.2635 9.95885 87.9133 8.59534 87.213 7.42387C86.5327 6.2332 85.5922 5.32099 84.3917 4.68724C83.1911 4.03429 81.8505 3.70782 80.3698 3.70782C78.869 3.70782 77.5084 4.02469 76.2878 4.65844C75.0873 5.29218 74.1268 6.20439 73.4065 7.39506C72.7061 8.58573 72.356 9.95885 72.356 11.5144C72.356 13.0892 72.7061 14.4719 73.4065 15.6626C74.1068 16.834 75.0572 17.7462 76.2578 18.3992C77.4784 19.0329 78.829 19.3498 80.3097 19.3498Z"/>
<path d="M104.96 22C102.879 22 100.998 21.5679 99.3174 20.7037C97.6366 19.8203 96.316 18.5816 95.3556 16.9877C94.3951 15.3937 93.9149 13.5693 93.9149 11.5144C93.9149 9.45953 94.3951 7.63512 95.3556 6.04115C96.316 4.44719 97.6366 3.2085 99.3174 2.3251C100.998 1.4417 102.879 1 104.96 1C107.041 1 108.922 1.4417 110.603 2.3251C112.284 3.2085 113.604 4.44719 114.565 6.04115C115.525 7.63512 116.005 9.45953 116.005 11.5144C116.005 13.5693 115.525 15.3937 114.565 16.9877C113.604 18.5816 112.284 19.8203 110.603 20.7037C108.922 21.5679 107.041 22 104.96 22ZM104.96 19.3498C106.441 19.3498 107.781 19.0329 108.982 18.3992C110.203 17.7462 111.163 16.834 111.863 15.6626C112.564 14.4719 112.914 13.0892 112.914 11.5144C112.914 9.95885 112.564 8.59534 111.863 7.42387C111.183 6.2332 110.243 5.32099 109.042 4.68724C107.841 4.03429 106.501 3.70782 105.02 3.70782C103.519 3.70782 102.159 4.02469 100.938 4.65844C99.7376 5.29218 98.7772 6.20439 98.0568 7.39506C97.3565 8.58573 97.0063 9.95885 97.0063 11.5144C97.0063 13.0892 97.3565 14.4719 98.0568 15.6626C98.7572 16.834 99.7076 17.7462 100.908 18.3992C102.129 19.0329 103.479 19.3498 104.96 19.3498Z"/>
<path d="M119.312 1.4321H122.223L132.909 16.6132V1.4321H136V21.5679H133.059L122.374 6.38683V21.5679H119.312V1.4321Z"/>
</mask>
<path d="M5 1.4321H8.06145L15.535 17.1317L23.0085 1.4321H26.07V21.5679H23.0986V7.25103L16.2854 21.5679H14.7846L7.9414 7.25103V21.5679H5V1.4321Z" fill="#122947"/>
<path d="M36.9844 1.4321H39.9258L48.2998 21.5679H45.1783L43.0773 16.5556H33.8029L31.7619 21.5679H28.6104L36.9844 1.4321ZM42.2369 14.107L38.4551 4.68724L34.6733 14.107H42.2369Z" fill="#122947"/>
<path d="M51.6042 1.4321H60.0382C62.2792 1.4321 64 1.95062 65.2006 2.98765C66.4012 4.02469 67.0015 5.54184 67.0015 7.5391C67.0015 9.01783 66.5913 10.2757 65.7709 11.3128C64.9505 12.3306 63.7899 13.0219 62.2892 13.3868L66.9114 21.5679H63.7299L59.2578 13.6173H54.6656V21.5679H51.6042V1.4321ZM59.5279 11.1399C60.8686 11.1399 61.9291 10.8422 62.7094 10.2469C63.5098 9.63237 63.91 8.72977 63.91 7.5391C63.91 6.2332 63.5198 5.30178 62.7394 4.74486C61.9791 4.18793 60.9086 3.90947 59.5279 3.90947H54.6656V11.1399H59.5279Z" fill="#122947"/>
<path d="M80.3097 22C78.2287 22 76.3479 21.5679 74.6671 20.7037C72.9863 19.8203 71.6656 18.5816 70.7052 16.9877C69.7447 15.3937 69.2645 13.5693 69.2645 11.5144C69.2645 9.45953 69.7447 7.63512 70.7052 6.04115C71.6656 4.44719 72.9863 3.2085 74.6671 2.3251C76.3479 1.4417 78.2287 1 80.3097 1C82.3907 1 84.2716 1.4417 85.9524 2.3251C87.6332 3.2085 88.9538 4.44719 89.9143 6.04115C90.8747 7.63512 91.355 9.45953 91.355 11.5144C91.355 13.5693 90.8747 15.3937 89.9143 16.9877C88.9538 18.5816 87.6332 19.8203 85.9524 20.7037C84.2716 21.5679 82.3907 22 80.3097 22ZM80.3097 19.3498C81.7904 19.3498 83.1311 19.0329 84.3316 18.3992C85.5522 17.7462 86.5127 16.834 87.213 15.6626C87.9133 14.4719 88.2635 13.0892 88.2635 11.5144C88.2635 9.95885 87.9133 8.59534 87.213 7.42387C86.5327 6.2332 85.5922 5.32099 84.3917 4.68724C83.1911 4.03429 81.8505 3.70782 80.3698 3.70782C78.869 3.70782 77.5084 4.02469 76.2878 4.65844C75.0873 5.29218 74.1268 6.20439 73.4065 7.39506C72.7061 8.58573 72.356 9.95885 72.356 11.5144C72.356 13.0892 72.7061 14.4719 73.4065 15.6626C74.1068 16.834 75.0572 17.7462 76.2578 18.3992C77.4784 19.0329 78.829 19.3498 80.3097 19.3498Z" fill="#122947"/>
<path d="M104.96 22C102.879 22 100.998 21.5679 99.3174 20.7037C97.6366 19.8203 96.316 18.5816 95.3556 16.9877C94.3951 15.3937 93.9149 13.5693 93.9149 11.5144C93.9149 9.45953 94.3951 7.63512 95.3556 6.04115C96.316 4.44719 97.6366 3.2085 99.3174 2.3251C100.998 1.4417 102.879 1 104.96 1C107.041 1 108.922 1.4417 110.603 2.3251C112.284 3.2085 113.604 4.44719 114.565 6.04115C115.525 7.63512 116.005 9.45953 116.005 11.5144C116.005 13.5693 115.525 15.3937 114.565 16.9877C113.604 18.5816 112.284 19.8203 110.603 20.7037C108.922 21.5679 107.041 22 104.96 22ZM104.96 19.3498C106.441 19.3498 107.781 19.0329 108.982 18.3992C110.203 17.7462 111.163 16.834 111.863 15.6626C112.564 14.4719 112.914 13.0892 112.914 11.5144C112.914 9.95885 112.564 8.59534 111.863 7.42387C111.183 6.2332 110.243 5.32099 109.042 4.68724C107.841 4.03429 106.501 3.70782 105.02 3.70782C103.519 3.70782 102.159 4.02469 100.938 4.65844C99.7376 5.29218 98.7772 6.20439 98.0568 7.39506C97.3565 8.58573 97.0063 9.95885 97.0063 11.5144C97.0063 13.0892 97.3565 14.4719 98.0568 15.6626C98.7572 16.834 99.7076 17.7462 100.908 18.3992C102.129 19.0329 103.479 19.3498 104.96 19.3498Z" fill="#122947"/>
<path d="M119.312 1.4321H122.223L132.909 16.6132V1.4321H136V21.5679H133.059L122.374 6.38683V21.5679H119.312V1.4321Z" fill="#122947"/>
<path d="M5 1.4321H8.06145L15.535 17.1317L23.0085 1.4321H26.07V21.5679H23.0986V7.25103L16.2854 21.5679H14.7846L7.9414 7.25103V21.5679H5V1.4321Z" stroke="black" stroke-width="2" mask="url(#path-1-outside-1_8_212)"/>
<path d="M36.9844 1.4321H39.9258L48.2998 21.5679H45.1783L43.0773 16.5556H33.8029L31.7619 21.5679H28.6104L36.9844 1.4321ZM42.2369 14.107L38.4551 4.68724L34.6733 14.107H42.2369Z" stroke="black" stroke-width="2" mask="url(#path-1-outside-1_8_212)"/>
<path d="M51.6042 1.4321H60.0382C62.2792 1.4321 64 1.95062 65.2006 2.98765C66.4012 4.02469 67.0015 5.54184 67.0015 7.5391C67.0015 9.01783 66.5913 10.2757 65.7709 11.3128C64.9505 12.3306 63.7899 13.0219 62.2892 13.3868L66.9114 21.5679H63.7299L59.2578 13.6173H54.6656V21.5679H51.6042V1.4321ZM59.5279 11.1399C60.8686 11.1399 61.9291 10.8422 62.7094 10.2469C63.5098 9.63237 63.91 8.72977 63.91 7.5391C63.91 6.2332 63.5198 5.30178 62.7394 4.74486C61.9791 4.18793 60.9086 3.90947 59.5279 3.90947H54.6656V11.1399H59.5279Z" stroke="black" stroke-width="2" mask="url(#path-1-outside-1_8_212)"/>
<path d="M80.3097 22C78.2287 22 76.3479 21.5679 74.6671 20.7037C72.9863 19.8203 71.6656 18.5816 70.7052 16.9877C69.7447 15.3937 69.2645 13.5693 69.2645 11.5144C69.2645 9.45953 69.7447 7.63512 70.7052 6.04115C71.6656 4.44719 72.9863 3.2085 74.6671 2.3251C76.3479 1.4417 78.2287 1 80.3097 1C82.3907 1 84.2716 1.4417 85.9524 2.3251C87.6332 3.2085 88.9538 4.44719 89.9143 6.04115C90.8747 7.63512 91.355 9.45953 91.355 11.5144C91.355 13.5693 90.8747 15.3937 89.9143 16.9877C88.9538 18.5816 87.6332 19.8203 85.9524 20.7037C84.2716 21.5679 82.3907 22 80.3097 22ZM80.3097 19.3498C81.7904 19.3498 83.1311 19.0329 84.3316 18.3992C85.5522 17.7462 86.5127 16.834 87.213 15.6626C87.9133 14.4719 88.2635 13.0892 88.2635 11.5144C88.2635 9.95885 87.9133 8.59534 87.213 7.42387C86.5327 6.2332 85.5922 5.32099 84.3917 4.68724C83.1911 4.03429 81.8505 3.70782 80.3698 3.70782C78.869 3.70782 77.5084 4.02469 76.2878 4.65844C75.0873 5.29218 74.1268 6.20439 73.4065 7.39506C72.7061 8.58573 72.356 9.95885 72.356 11.5144C72.356 13.0892 72.7061 14.4719 73.4065 15.6626C74.1068 16.834 75.0572 17.7462 76.2578 18.3992C77.4784 19.0329 78.829 19.3498 80.3097 19.3498Z" stroke="black" stroke-width="2" mask="url(#path-1-outside-1_8_212)"/>
<path d="M104.96 22C102.879 22 100.998 21.5679 99.3174 20.7037C97.6366 19.8203 96.316 18.5816 95.3556 16.9877C94.3951 15.3937 93.9149 13.5693 93.9149 11.5144C93.9149 9.45953 94.3951 7.63512 95.3556 6.04115C96.316 4.44719 97.6366 3.2085 99.3174 2.3251C100.998 1.4417 102.879 1 104.96 1C107.041 1 108.922 1.4417 110.603 2.3251C112.284 3.2085 113.604 4.44719 114.565 6.04115C115.525 7.63512 116.005 9.45953 116.005 11.5144C116.005 13.5693 115.525 15.3937 114.565 16.9877C113.604 18.5816 112.284 19.8203 110.603 20.7037C108.922 21.5679 107.041 22 104.96 22ZM104.96 19.3498C106.441 19.3498 107.781 19.0329 108.982 18.3992C110.203 17.7462 111.163 16.834 111.863 15.6626C112.564 14.4719 112.914 13.0892 112.914 11.5144C112.914 9.95885 112.564 8.59534 111.863 7.42387C111.183 6.2332 110.243 5.32099 109.042 4.68724C107.841 4.03429 106.501 3.70782 105.02 3.70782C103.519 3.70782 102.159 4.02469 100.938 4.65844C99.7376 5.29218 98.7772 6.20439 98.0568 7.39506C97.3565 8.58573 97.0063 9.95885 97.0063 11.5144C97.0063 13.0892 97.3565 14.4719 98.0568 15.6626C98.7572 16.834 99.7076 17.7462 100.908 18.3992C102.129 19.0329 103.479 19.3498 104.96 19.3498Z" stroke="black" stroke-width="2" mask="url(#path-1-outside-1_8_212)"/>
<path d="M119.312 1.4321H122.223L132.909 16.6132V1.4321H136V21.5679H133.059L122.374 6.38683V21.5679H119.312V1.4321Z" stroke="black" stroke-width="2" mask="url(#path-1-outside-1_8_212)"/>
</g>
<defs>
<filter id="filter0_d_8_212" x="0" y="0" width="141" height="31" filterUnits="userSpaceOnUse" color-interpolation-filters="sRGB">
<feFlood flood-opacity="0" result="BackgroundImageFix"/>
<feColorMatrix in="SourceAlpha" type="matrix" values="0 0 0 0 0 0 0 0 0 0 0 0 0 0 0 0 0 0 127 0" result="hardAlpha"/>
<feOffset dy="4"/>
<feGaussianBlur stdDeviation="2"/>
<feComposite in2="hardAlpha" operator="out"/>
<feColorMatrix type="matrix" values="0 0 0 0 0 0 0 0 0 0 0 0 0 0 0 0 0 0 0.25 0"/>
<feBlend mode="normal" in2="BackgroundImageFix" result="effect1_dropShadow_8_212"/>
<feBlend mode="normal" in="SourceGraphic" in2="effect1_dropShadow_8_212" result="shape"/>
</filter>
</defs>
</svg>
